<svg xmlns="http://www.w3.org/2000/svg" width="174" height="165" fill="none"><style>.changeable{fill:#fff}</style><path fill-rule="evenodd" d="M93 22C93 10.402 79.792 1 63.5 1 47.83 1 35.013 9.698 34.057 20.682c-8.817 1.897-16.147 7.607-20.04 15.246A27.6 27.6 0 0 0 11 48.5c0 3.46.639 6.777 1.808 9.846C7.96 63.514 5 70.416 5 78c0 13.164 8.922 24.28 21.147 27.821C31.313 107.715 35 112.677 35 118.5q0 .25-.01.5H35v12h.005c.303 13.852 13.169 25 28.995 25 15.057 0 27.434-10.09 28.862-23H93v-19H81v16h-.014q.014.252.014.5c0 6.052-6.115 13.5-17 13.5s-17-7.448-17-13.5q0-.248.014-.5H47v-11h-.005q.005-.25.005-.5c0-11.103-7.096-20.548-17-24.049v-.014l-.156-.04q-.715-.249-1.45-.454C21.659 91.513 17 85.18 17 78c0-3.357 1.018-6.529 2.791-9.203q.556-.84 1.209-1.61a17.47 17.47 0 0 1 8.851-5.585A17.1 17.1 0 0 1 26.205 58a16.3 16.3 0 0 1-2.534-5l-.014-.045a16 16 0 0 1-.42-1.766 15.4 15.4 0 0 1-.207-3.655c.52-8.23 7.62-15.37 17.14-15.531L40.5 32h.09c.12.001.291.003.41.006V32c1.993 0 3.943.048 5.835.141a55 55 0 0 1-.831-10.274c.048-.951.634-2.832 3.596-4.94C52.68 14.733 57.558 13 63.5 13s10.819 1.733 13.9 3.927C80.508 19.139 81 21.1 81 22v30h12z" class="changeable" clip-rule="evenodd"/><path d="m34.057 20.682.21.977a1 1 0 0 0 .786-.89zm-20.04 15.246.892.454zm-2.608 7.814-.985-.172zm1.399 14.604.73.684a1 1 0 0 0 .204-1.04zm13.339 47.475.344-.939-.066-.022zM34.99 119l-1-.036a1 1 0 0 0 1 1.036zm.009 0h1a1 1 0 0 0-1-1zm0 12h-1a1 1 0 0 0 1 1zm.005 0 1-.022a1 1 0 0 0-1-.978zm57.857 2v-1a1 1 0 0 0-.993.89zm.138 0v1a1 1 0 0 0 1-1zm0-19h1a1 1 0 0 0-1-1zm-12 0v-1a1 1 0 0 0-1 1zm0 16v1a1 1 0 0 0 1-1zm-.014 0v-1a1 1 0 0 0-.998 1.054zm-33.972 0 .998.054a1 1 0 0 0-.998-1.054zM47 130h-1a1 1 0 0 0 1 1zm0-11h1a1 1 0 0 0-1.002-1zm-.005 0-1-.019A1 1 0 0 0 46.997 120zM30 94.451h-1a1 1 0 0 0 .667.943zm0-.014h1a1 1 0 0 0-.752-.968zm-.156-.04-.327.944.07.022zm-1.45-.454-.34.94.07.023zm-8.603-25.146.834.553zM21 67.187l-.763-.646zm8.851-5.585.257.966a1 1 0 0 0 .332-1.775zM26.205 58l.802-.597zm-2.534-5-.958.289v.001zm-.014-.045-.958.287v.002zm-.324-1.27-.978.206zm-.096-.496.985-.175zm-.207-3.655.998.063zm17.14-15.531-.018-1zM40.5 32l.002-1H40.5zm.09 0 .007-1h-.005zm.41.006-.026 1a1 1 0 0 0 1.026-1zM41 32v-1a1 1 0 0 0-1 1zm5.835.141-.049.999a1 1 0 0 0 1.033-1.175zm-.831-10.274-1-.051v.04zm3.596-4.94.58.814zm27.8 0-.58.814zM81 52h-1a1 1 0 0 0 1 1zm12 0v1a1 1 0 0 0 1-1zM63.5 2c7.963 0 15.13 2.3 20.28 5.965C88.932 11.633 92 16.61 92 22h2c0-6.207-3.536-11.731-9.06-15.664C79.413 2.402 71.83 0 63.5 0zM35.053 20.768c.445-5.111 3.66-9.787 8.765-13.216C48.92 4.127 55.842 2 63.5 2V0c-8.013 0-15.333 2.222-20.797 5.892-5.46 3.666-9.131 8.83-9.642 14.703zM14.91 36.382c3.754-7.368 10.832-12.888 19.359-14.723l-.421-1.955c-9.108 1.96-16.69 7.86-20.72 15.77zm-2.514 7.531a26.6 26.6 0 0 1 2.514-7.53l-1.782-.909a28.6 28.6 0 0 0-2.703 8.096zM12 48.5c0-1.564.135-3.096.395-4.587l-1.97-.343A29 29 0 0 0 10 48.5zm1.742 9.49A26.6 26.6 0 0 1 12 48.5h-2a28.6 28.6 0 0 0 1.873 10.202zM6 78c0-7.317 2.856-13.979 7.537-18.97l-1.459-1.368C7.067 63.006 4 70.151 4 78zm20.425 26.86C14.607 101.437 6 90.697 6 78H4c0 13.631 9.238 25.122 21.868 28.781zM36 118.5c0-6.256-3.961-11.584-9.51-13.618l-.688 1.878C30.588 108.514 34 113.11 34 118.5zm-.01.536q.01-.266.01-.536h-2q0 .233-.008.464zM35 118h-.01l.002 2H35zm1 12.5V119h-2v11.5zm0 .5v-.5h-2v.5zm-.995-1H35v2h.005zM64 155c-15.402 0-27.706-10.825-27.995-24.022l-2 .044C34.324 145.53 47.75 157 64 157zm27.868-22.11C90.507 145.2 78.648 155 64 155v2c15.467 0 28.361-10.38 29.856-23.89zM93 132h-.138v2H93zm-1-1.5v2.5h2v-2.5zm0-16.5v16.5h2V114zm-11 1h12v-2H81zm1 15v-16h-2v16zm-1.014 1H81v-2h-.014zm1.014-.5q0-.276-.015-.554l-1.997.108q.012.225.012.446zM64 145c11.343 0 18-7.805 18-14.5h-2c0 5.41-5.572 12.5-16 12.5zm-18-14.5c0 6.695 6.657 14.5 18 14.5v-2c-10.428 0-16-7.09-16-12.5zm.015-.554q-.015.278-.015.554h2q0-.22.012-.446zM47 131h.014v-2H47zm-1-12v11h2v-11zm.997 1h.005l-.004-2h-.004zM46 118.5q0 .241-.005.481l2 .038q.005-.259.005-.519zM29.667 95.394C39.184 98.758 46 107.834 46 118.5h2c0-11.54-7.376-21.354-17.667-24.992zM29 94.437v.014h2v-.014zm.587.926.165.043.496-1.937-.147-.039zm-1.463-.457q.705.197 1.393.435l.654-1.89a26 26 0 0 0-1.507-.471zM16 78c0 7.622 4.942 14.317 12.055 16.883l.678-1.88C22.375 90.707 18 84.74 18 78zm2.958-9.755A17.6 17.6 0 0 0 16 78h2c0-3.153.956-6.133 2.625-8.65zm1.279-1.704q-.69.815-1.28 1.704l1.668 1.105q.524-.791 1.138-1.516zm9.357-5.906a18.47 18.47 0 0 0-9.357 5.906l1.526 1.293a16.47 16.47 0 0 1 8.345-5.266zm-4.191-2.038a18.1 18.1 0 0 0 3.86 3.813l1.177-1.617a16.1 16.1 0 0 1-3.433-3.39zm-2.69-5.307a17.3 17.3 0 0 0 2.69 5.307l1.604-1.194a15.3 15.3 0 0 1-2.38-4.693zm-.013-.046.013.045 1.915-.578-.014-.045zm-.345-1.353q.144.684.344 1.351l1.916-.575a15 15 0 0 1-.303-1.189zm-.103-.528q.048.265.103.528l1.957-.413a15 15 0 0 1-.09-.464zM22 48.5c0 .968.086 1.926.252 2.863l1.97-.349A14.4 14.4 0 0 1 24 48.5zm.032-1.029Q22 47.984 22 48.5h2q0-.453.028-.903zm18.12-16.468c-10.022.17-17.567 7.699-18.12 16.468l1.996.126c.485-7.691 7.14-14.441 16.158-14.594zM40.5 31l-.348.003.034 2L40.5 33zm.092 0h-.09l-.004 2h.09zm.434.007L40.597 31l-.014 2c.116.001.28.003.391.006zM40 32v.006h2V32zm6.884-.858A121 121 0 0 0 41 31v2c1.977 0 3.91.048 5.786.14zM45 22.5c0 3.42.298 6.719.85 9.817l1.97-.352A54 54 0 0 1 47 22.5zm.004-.644Q45 22.177 45 22.5h2q0-.312.003-.622zm4.016-5.744c-3.15 2.242-3.948 4.38-4.015 5.704l1.997.102c.03-.578.404-2.202 3.177-4.177zM63.5 12c-6.126 0-11.211 1.785-14.48 4.112l1.16 1.63C53.073 15.681 57.741 14 63.5 14zm14.48 4.112C74.711 13.785 69.626 12 63.5 12v2c5.758 0 10.427 1.681 13.32 3.741zM82 22c0-1.295-.714-3.535-4.02-5.888l-1.16 1.63C79.73 19.811 80 21.495 80 22zm0 30V22h-2v30zm11-1H81v2h12zm-1-29v30h2V22z" class="changeable"/><path fill-rule="evenodd" d="M81 22c0-11.598 13.208-21 29.5-21 15.67 0 28.487 8.698 29.443 19.682 8.817 1.897 16.147 7.607 20.039 15.246A27.6 27.6 0 0 1 163 48.5c0 3.46-.638 6.777-1.808 9.846C166.039 63.514 169 70.416 169 78c0 13.164-8.922 24.28-21.147 27.821-5.166 1.894-8.853 6.856-8.853 12.679q0 .25.009.5H139v12h-.005c-.303 13.852-13.169 25-28.995 25-15.057 0-27.434-10.09-28.862-23H81v-19h12v16h.014q-.014.252-.014.5c0 6.052 6.115 13.5 17 13.5s17-7.448 17-13.5a9 9 0 0 0-.014-.5H127v-11h.005a28 28 0 0 1-.005-.5c0-11.103 7.096-20.548 17-24.049v-.014l.156-.04q.716-.249 1.45-.454C152.342 91.513 157 85.18 157 78c0-3.357-1.018-6.529-2.791-9.203a17 17 0 0 0-1.209-1.61 17.47 17.47 0 0 0-8.851-5.585A17.1 17.1 0 0 0 147.795 58a16.3 16.3 0 0 0 2.534-5l.014-.045a16 16 0 0 0 .42-1.766 15.4 15.4 0 0 0 .207-3.655c-.519-8.23-7.619-15.37-17.139-15.531Q133.666 32 133.5 32h-.09c-.12.001-.291.003-.41.006V32c-1.993 0-3.943.048-5.835.141a55 55 0 0 0 .832-10.274c-.049-.951-.635-2.832-3.597-4.94-3.081-2.194-7.958-3.927-13.9-3.927s-10.819 1.733-13.9 3.927C93.493 19.139 93 21.1 93 22v30H81z" class="changeable" clip-rule="evenodd"/><path d="m139.943 20.682-.211.977a1 1 0 0 1-.785-.89zm20.039 15.246-.891.454zm2.609 7.814.985-.172zm-1.399 14.604-.729.684a1 1 0 0 1-.205-1.04zm-13.339 47.475-.344-.939.066-.022zM139.009 119l.999-.036a1 1 0 0 1-1 1.036zm-.009 0h-1a.997.997 0 0 1 1.001-1zm0 12h1a1 1 0 0 1-1 1zm-.005 0-1-.022a1 1 0 0 1 1-.978zm-57.857 2v-1a1 1 0 0 1 .993.89zM81 133v1a1 1 0 0 1-1-1zm0-19h-1a1 1 0 0 1 1-1zm12 0v-1a1 1 0 0 1 1 1zm0 16v1a1 1 0 0 1-1-1zm.014 0v-1a1 1 0 0 1 .998 1.054zm33.972 0-.998.054a1 1 0 0 1 .998-1.054zm.014 0h1a1 1 0 0 1-1 1zm0-11h-1c0-.265.106-.52.293-.708.188-.187.443-.292.709-.292zm.005 0 1-.019a1 1 0 0 1-1.002 1.019zM144 94.451h1a1 1 0 0 1-.667.943zm0-.014h-1a1 1 0 0 1 .752-.968zm.156-.04.327.944-.07.022zm1.45-.454.339.94-.069.023zm8.603-25.146-.834.553zM153 67.187l.763-.646zm-8.851-5.585-.257.966a1 1 0 0 1-.332-1.775zM147.795 58l-.802-.597zm2.534-5 .958.289-.001.001zm.014-.045.958.287-.001.002zm.324-1.27.978.206zm.096-.496-.985-.175zm.207-3.655-.998.063zm-17.139-15.531.017-1zM133.5 32l-.002-1h.002zm-.09 0-.007-1h.005zm-.41.006.026 1a1 1 0 0 1-1.026-1zm0-.006v-1a1 1 0 0 1 1 1zm-5.835.141.049.999a1.002 1.002 0 0 1-1.033-1.175zm.832-10.274.998-.051.001.04zm-3.597-4.94-.579.814zm-27.8 0 .58.814zM93 52h1a1 1 0 0 1-1 1zm-12 0v1a1 1 0 0 1-1-1zm29.5-50c-7.963 0-15.13 2.3-20.28 5.965C85.068 11.633 82 16.61 82 22h-2c0-6.207 3.536-11.731 9.06-15.664C94.587 2.402 102.17 0 110.5 0zm28.447 18.768c-.445-5.111-3.66-9.787-8.765-13.216C125.081 4.127 118.158 2 110.5 2V0c8.013 0 15.333 2.222 20.797 5.892 5.459 3.666 9.131 8.83 9.642 14.703zm20.144 15.614c-3.754-7.368-10.832-12.888-19.359-14.723l.421-1.955c9.108 1.96 16.689 7.86 20.72 15.77zm2.514 7.531a26.6 26.6 0 0 0-2.514-7.53l1.782-.909a28.6 28.6 0 0 1 2.703 8.096zM162 48.5a26.7 26.7 0 0 0-.395-4.587l1.971-.343A29 29 0 0 1 164 48.5zm-1.742 9.49A26.6 26.6 0 0 0 162 48.5h2a28.6 28.6 0 0 1-1.873 10.202zM168 78c0-7.317-2.856-13.979-7.537-18.97l1.458-1.368C166.934 63.006 170 70.151 170 78zm-20.425 26.86C159.393 101.437 168 90.697 168 78h2c0 13.631-9.238 25.122-21.868 28.781zM138 118.5c0-6.256 3.961-11.584 9.509-13.618l.689 1.878c-4.786 1.754-8.198 6.35-8.198 11.74zm.01.536q-.01-.266-.01-.536h2q0 .233.008.464zm.991-1.036h.009l-.002 2h-.009zM138 130.5V119h2v11.5zm0 .5v-.5h2v.5zm.995-1H139v2h-.005zM110 155c15.402 0 27.706-10.825 27.995-24.022l1.999.044C139.677 145.53 126.25 157 110 157zm-27.868-22.11C83.494 145.2 95.353 155 110 155v2c-15.467 0-28.361-10.38-29.856-23.89zM81 132h.138v2H81zm1-1.5v2.5h-2v-2.5zm0-16.5v16.5h-2V114zm11 1H81v-2h12zm-1 15v-16h2v16zm1.014 1H93v-2h.014zM92 130.5q0-.276.015-.554l1.997.108a8 8 0 0 0-.012.446zm18 14.5c-11.343 0-18-7.805-18-14.5h2c0 5.41 5.572 12.5 16 12.5zm18-14.5c0 6.695-6.657 14.5-18 14.5v-2c10.428 0 16-7.09 16-12.5zm-.015-.554q.015.278.015.554h-2q0-.22-.012-.446zM127 131h-.014v-2H127zm1-12v11h-2v-11zm-.997 1h-.005l.004-2h.004zm.997-1.5q0 .241.005.481l-2 .038a30 30 0 0 1-.005-.519zm16.333-23.106C134.816 98.758 128 107.834 128 118.5h-2c0-11.54 7.376-21.354 17.667-24.992zm.667-.957v.014h-2v-.014zm-.587.926-.165.043-.496-1.937.147-.039zm1.463-.457q-.706.197-1.393.435l-.654-1.89q.744-.257 1.507-.471zM158 78c0 7.622-4.942 14.317-12.055 16.883l-.678-1.88C151.625 90.707 156 84.74 156 78zm-2.958-9.755A17.6 17.6 0 0 1 158 78h-2a15.6 15.6 0 0 0-2.625-8.65zm-1.279-1.704q.69.815 1.279 1.704l-1.667 1.105a16 16 0 0 0-1.138-1.516zm-9.357-5.906a18.47 18.47 0 0 1 9.357 5.906l-1.526 1.293a16.47 16.47 0 0 0-8.345-5.266zm4.191-2.038a18.1 18.1 0 0 1-3.859 3.813l-1.178-1.617a16.1 16.1 0 0 0 3.433-3.39zm2.689-5.307a17.3 17.3 0 0 1-2.689 5.307l-1.604-1.194a15.3 15.3 0 0 0 2.379-4.693zm.014-.046-.013.045-1.915-.578.013-.045zm.345-1.353a17 17 0 0 1-.344 1.351l-1.916-.575q.177-.587.303-1.189zm.103-.528a19 19 0 0 1-.103.528l-1.957-.413q.05-.231.09-.464zM152 48.5c0 .968-.086 1.926-.252 2.863l-1.97-.349q.22-1.237.222-2.514zm-.032-1.029q.032.513.032 1.029h-2q0-.453-.028-.903zm-18.12-16.468c10.022.17 17.567 7.699 18.12 16.468l-1.996.126c-.485-7.691-7.141-14.441-16.158-14.594zM133.5 31l.348.003-.034 2L133.5 33zm-.092 0h.09l.004 2h-.09zm-.434.007c.127-.004.306-.006.429-.007l.014 2c-.116.001-.281.003-.391.006zM134 32v.006h-2V32zm-6.884-.858A122 122 0 0 1 133 31v2c-1.977 0-3.911.048-5.786.14zM129 22.5c0 3.42-.298 6.719-.85 9.817l-1.969-.352A54 54 0 0 0 127 22.5zm-.004-.644q.004.321.004.644h-2q0-.312-.003-.622zm-4.016-5.744c3.149 2.242 3.948 4.38 4.015 5.704l-1.997.102c-.03-.578-.404-2.202-3.177-4.177zM110.5 12c6.126 0 11.211 1.785 14.48 4.112l-1.159 1.63C120.927 15.681 116.258 14 110.5 14zm-14.48 4.112C99.289 13.785 104.374 12 110.5 12v2c-5.758 0-10.427 1.681-13.32 3.741zM92 22c0-1.295.714-3.535 4.02-5.888l1.16 1.63C94.27 19.811 94 21.495 94 22zm0 30V22h2v30zm-11-1h12v2H81zm1-29v30h-2V22z" class="changeable"/><circle cx="65.5" cy="66.5" r="25.5" class="changeable"/><circle cx="108.5" cy="66.5" r="25.5" class="changeable"/><path d="m47.597 84.657 21.99-21.99 39.286 39.287-21.99 21.99z" class="changeable"/><path d="m104.237 63.05 21.883 21.88-39.236 39.237L65 102.286z" class="changeable"/><circle cx="65.5" cy="66.5" r="15.5" fill="#08F" class="non-changeable"/><circle cx="108.5" cy="66.5" r="15.5" fill="#08F" class="non-changeable"/><path fill="#08F" d="M54.473 77.328 76.361 55.44l32.554 32.555-21.887 21.887z" class="non-changeable"/><path fill="#08F" d="m97.449 55.629 21.918 21.918-32.33 32.33L65.119 87.96z" class="non-changeable"/></svg>